{"accessors":[{"bufferView":0,"componentType":5126,"count":4,"max":[0.5,0.5,0.0],"min":[-0.5,-0.5,0.0],"normalized":false,"type":"VEC3"},{"bufferView":1,"componentType":5126,"count":4,"max":[1.0,0.0,-1.5259021893143654e-05,1.0],"min":[1.0,0.0,-1.5259021893143654e-05,1.0],"normalized":false,"type":"VEC4"},{"bufferView":2,"componentType":5126,"count":4,"max":[-1.5259254723787308e-05,-1.5259254723787308e-05,1.0],"min":[-1.5259254723787308e-05,-1.5259254723787308e-05,1.0],"normalized":false,"type":"VEC3"},{"bufferView":3,"componentType":5126,"count":4,"max":[1.0,1.0],"min":[0.0,0.0],"normalized":false,"type":"VEC2"},{"bufferView":4,"componentType":5121,"count":6,"max":[3],"min":[0],"normalized":false,"type":"SCALAR"}],"asset":{"generator":"Godot Engine v4.6.stable.steam@89cea143987d564363e15d207438530651d943ac","version":"2.0"},"bufferViews":[{"buffer":0,"byteLength":48,"byteStride":12,"target":34962},{"buffer":0,"byteLength":64,"byteOffset":48,"byteStride":16,"target":34962},{"buffer":0,"byteLength":48,"byteOffset":112,"byteStride":12,"target":34962},{"buffer":0,"byteLength":32,"byteOffset":160,"byteStride":8,"target":34962},{"buffer":0,"byteLength":6,"byteOffset":192,"target":34963}],"buffers":[{"byteLength":198,"uri":"MuzzleFlash0.bin"}],"extensionsUsed":["GODOT_single_root"],"materials":[{"doubleSided":true,"pbrMetallicRoughness":{"baseColorFactor":[1.0,1.0,1.0,1.0],"metallicFactor":0.0,"roughnessFactor":1.0}},{"doubleSided":true,"pbrMetallicRoughness":{"baseColorFactor":[1.0,1.0,1.0,1.0],"metallicFactor":0.0,"roughnessFactor":1.0}}],"meshes":[{"primitives":[{"attributes":{"NORMAL":2,"POSITION":0,"TANGENT":1,"TEXCOORD_0":3},"indices":4,"material":0,"mode":4}]},{"primitives":[{"attributes":{"NORMAL":2,"POSITION":0,"TANGENT":1,"TEXCOORD_0":3},"indices":4,"material":1,"mode":4}]}],"nodes":[{"children":[1],"mesh":0,"name":"MeshInstance3D","rotation":[0.7071067690849304,0.0,0.0,0.7071067690849304]},{"mesh":1,"name":"MeshInstance3D2","rotation":[0.0,0.7071067690849304,0.0,0.7071067690849304]}],"scene":0,"scenes":[{"nodes":[0]}]}